<?xml version="1.0" standalone="no"?>
<!DOCTYPE svg PUBLIC "-//W3C//DTD SVG 20010904//EN"
 "http://www.w3.org/TR/2001/REC-SVG-20010904/DTD/svg10.dtd">
<svg version="1.0" xmlns="http://www.w3.org/2000/svg"
 width="500.000000pt" height="500.000000pt" viewBox="0 0 500.000000 500.000000"
 preserveAspectRatio="xMidYMid meet">

<g transform="translate(0.000000,500.000000) scale(0.100000,-0.100000)"
fill="#000000" stroke="none">
<path d="M0 2500 l0 -2500 2500 0 2500 0 0 2500 0 2500 -2500 0 -2500 0 0
-2500z m582 535 c-58 -25 -109 -73 -136 -126 l-25 -50 -3 38 c-2 21 -1 64 0
96 l4 57 96 0 c94 -1 96 -1 64 -15z m468 -260 l0 -275 220 0 220 0 0 60 0 60
-145 0 -145 0 0 50 0 49 123 3 122 3 3 58 3 57 -126 0 -125 0 0 45 0 45 140 0
140 0 0 60 0 60 45 0 45 0 2 -272 3 -273 78 -3 77 -3 0 76 0 75 43 0 c41 -1
43 -2 92 -75 l50 -75 83 0 c64 0 81 3 76 13 -4 6 -30 45 -58 85 l-50 73 33 26
c68 53 90 158 50 240 -22 46 -61 79 -118 99 -31 11 -8 13 183 14 171 0 217 -3
213 -12 -3 -7 -53 -121 -112 -253 -59 -132 -111 -250 -116 -262 -8 -23 -7 -23
70 -23 l79 0 22 55 22 55 117 0 117 0 18 -51 c10 -28 24 -53 31 -55 6 -3 44
-4 83 -2 l71 3 -120 269 c-65 148 -119 270 -119 272 0 2 63 4 140 4 l140 0 0
-275 0 -275 80 0 80 0 0 76 0 75 43 -3 c40 -3 44 -6 91 -75 l50 -73 83 0 84 0
-60 87 -60 88 29 18 c84 53 103 192 38 276 -24 32 -53 51 -97 67 -33 12 -24
13 91 14 l128 0 2 -272 3 -273 170 0 c193 0 238 11 307 73 63 57 82 104 83
197 0 67 -4 89 -25 129 -31 60 -82 103 -152 127 l-53 18 245 0 245 1 -41 -19
c-171 -78 -212 -315 -77 -453 56 -58 122 -82 223 -82 65 0 96 5 131 20 64 30
114 77 143 136 l26 52 0 -377 0 -377 -190 0 -190 0 0 55 0 55 -140 0 c-77 0
-140 2 -140 5 0 3 61 77 135 165 135 158 135 159 135 209 l0 51 -235 0 -235 0
0 -65 0 -64 129 -3 129 -3 -134 -159 c-127 -151 -134 -162 -134 -203 0 -41 -1
-43 -30 -43 -30 0 -30 1 -30 55 l0 55 -145 0 -145 0 0 50 0 50 125 0 125 0 0
55 0 54 -122 3 -123 3 0 45 0 45 138 3 137 3 0 59 0 60 -215 0 -215 0 0 -270
0 -270 -43 0 c-41 0 -43 1 -95 77 l-52 78 34 30 c47 41 66 84 66 148 0 82 -32
135 -105 172 -57 29 -63 30 -222 34 l-163 3 0 -271 0 -271 -55 0 -55 0 0 270
0 270 -80 0 -80 0 0 -270 0 -270 -55 0 -55 0 0 270 0 270 -64 0 -63 0 -95
-160 -94 -160 -98 161 -98 160 -61 -3 -62 -3 -3 -267 -2 -268 -23 0 c-21 0
-36 29 -143 270 l-119 270 -76 0 -76 0 -119 -270 c-65 -148 -123 -270 -129
-270 -10 0 -115 141 -115 155 0 3 16 20 36 38 65 56 82 142 45 222 -30 66 -99
113 -168 116 -15 1 -3 5 27 10 64 9 144 35 177 56 22 14 23 21 23 129 l0 114
-70 0 -70 0 0 -75 c0 -73 -1 -76 -27 -86 -38 -15 -110 -5 -141 18 -50 37 -67
70 -67 132 0 96 55 151 150 151 47 0 70 -8 122 -41 21 -13 26 -11 68 31 43 42
44 45 27 63 -9 11 -37 30 -62 43 l-45 23 108 1 107 0 0 -275z m3529 173 c0
-85 -2 -98 -11 -73 -22 62 -76 121 -143 155 l-40 20 98 0 97 0 -1 -102z
m-2690 -42 c14 -13 21 -31 21 -57 0 -56 -34 -79 -116 -79 l-64 0 0 81 0 81 69
-4 c50 -2 75 -9 90 -22z m1202 -5 c27 -33 24 -77 -6 -106 -21 -22 -33 -25 -90
-25 l-65 0 0 81 0 81 71 -4 c60 -3 74 -8 90 -27z m570 19 c19 -5 48 -23 64
-40 25 -26 30 -40 33 -93 6 -111 -46 -157 -178 -157 l-70 0 0 150 0 150 58 0
c31 0 73 -5 93 -10z m697 -10 c95 -58 89 -220 -10 -271 -48 -25 -89 -24 -139
2 -74 38 -101 151 -52 225 41 63 136 84 201 44z m-1914 -99 c37 -91 37 -91
-40 -91 -59 0 -65 2 -60 18 38 101 61 151 67 145 4 -4 19 -37 33 -72z m-1951
-229 c36 -38 72 -59 132 -78 37 -12 31 -13 -82 -13 l-123 -1 0 108 0 107 21
-45 c11 -25 35 -60 52 -78z m237 -242 c21 -21 26 -69 10 -100 -13 -24 -62 -40
-121 -40 l-49 0 0 80 0 80 70 0 c57 0 74 -4 90 -20z m2210 2 c30 -24 32 -85 3
-114 -18 -17 -34 -22 -90 -22 l-68 -1 -3 78 -3 77 69 0 c52 0 75 -5 92 -18z
m-1652 -104 l31 -78 -71 0 c-38 0 -68 4 -66 8 2 5 16 43 33 85 16 42 32 73 36
69 3 -4 20 -42 37 -84z m822 -153 l0 -135 -175 0 -175 0 0 132 0 133 68 -112
c65 -109 68 -112 102 -113 35 0 37 3 104 115 38 63 70 115 72 115 2 0 4 -61 4
-135z m-1414 -62 c21 -32 41 -61 42 -65 2 -5 -35 -8 -82 -8 l-86 0 0 65 0 65
44 0 c41 0 45 -2 82 -57z m2218 -8 l45 -65 -89 0 -90 0 0 65 0 65 44 0 c43 0
46 -2 90 -65z m-1536 -2 c5 -16 13 -36 17 -45 7 -17 -4 -18 -144 -18 -83 0
-151 4 -151 9 0 5 7 25 15 45 l15 36 119 0 119 0 10 -27z"/>
</g>
</svg>
